<svg width="200" height="150" viewBox="0 0 200 150" xmlns="http://www.w3.org/2000/svg">
  <rect width="200" height="150" fill="#f4f4f4"/>
  
  <!-- Switching regulator module -->
  <rect x="50" y="45" width="100" height="60" fill="#0033A0" rx="4"/>
  <rect x="55" y="50" width="90" height="50" fill="#333" rx="2"/>
  
  <!-- Heat sink fins -->
  <rect x="60" y="40" width="3" height="15" fill="silver"/>
  <rect x="65" y="40" width="3" height="15" fill="silver"/>
  <rect x="70" y="40" width="3" height="15" fill="silver"/>
  <rect x="75" y="40" width="3" height="15" fill="silver"/>
  <rect x="80" y="40" width="3" height="15" fill="silver"/>
  
  <!-- Pins/leads -->
  <rect x="45" y="60" width="8" height="3" fill="#FFC72C"/>
  <rect x="45" y="70" width="8" height="3" fill="#FFC72C"/>
  <rect x="45" y="80" width="8" height="3" fill="#FFC72C"/>
  
  <rect x="147" y="60" width="8" height="3" fill="#FFC72C"/>
  <rect x="147" y="70" width="8" height="3" fill="#FFC72C"/>
  <rect x="147" y="80" width="8" height="3" fill="#FFC72C"/>
  
  <!-- Components -->
  <rect x="65" y="65" width="12" height="8" fill="#00AEEF"/>
  <circle cx="95" cy="70" r="6" fill="#FFC72C"/>
  <rect x="110" y="65" width="8" height="8" fill="#666"/>
  <rect x="125" y="65" width="10" height="8" fill="#00AEEF"/>
  
  <text x="100" y="125" font-family="Arial, sans-serif" font-size="14" fill="#0033A0" text-anchor="middle" font-weight="bold">K78 Series</text>
  <text x="100" y="140" font-family="Arial, sans-serif" font-size="10" fill="#666" text-anchor="middle">Switching Regulator</text>
</svg>