<svg width="200" height="150" viewBox="0 0 200 150" xmlns="http://www.w3.org/2000/svg">
  <rect width="200" height="150" fill="#f4f4f4"/>
  
  <!-- Open frame power supply -->
  <rect x="30" y="40" width="140" height="70" fill="#0033A0" rx="3"/>
  
  <!-- Open frame structure -->
  <rect x="35" y="45" width="130" height="8" fill="#333"/>
  <rect x="35" y="102" width="130" height="8" fill="#333"/>
  <rect x="35" y="45" width="8" height="65" fill="#333"/>
  <rect x="157" y="45" width="8" height="65" fill="#333"/>
  
  <!-- PCB inside -->
  <rect x="45" y="55" width="110" height="45" fill="#00AEEF"/>
  
  <!-- Components on PCB -->
  <rect x="55" y="65" width="15" height="10" fill="#FFC72C"/>
  <circle cx="80" cy="70" r="6" fill="#333"/>
  <rect x="95" y="65" width="8" height="10" fill="#666"/>
  <circle cx="115" cy="75" r="8" fill="#FFC72C"/>
  <rect x="130" y="68" width="12" height="8" fill="#333"/>
  
  <!-- Heat sink -->
  <rect x="120" y="55" width="25" height="5" fill="silver"/>
  <rect x="122" y="50" width="2" height="10" fill="silver"/>
  <rect x="126" y="50" width="2" height="10" fill="silver"/>
  <rect x="130" y="50" width="2" height="10" fill="silver"/>
  <rect x="134" y="50" width="2" height="10" fill="silver"/>
  <rect x="138" y="50" width="2" height="10" fill="silver"/>
  <rect x="142" y="50" width="2" height="10" fill="silver"/>
  
  <!-- Terminal blocks -->
  <rect x="25" y="65" width="12" height="20" fill="#333"/>
  <rect x="163" y="65" width="12" height="20" fill="#333"/>
  
  <text x="100" y="125" font-family="Arial, sans-serif" font-size="14" fill="#0033A0" text-anchor="middle" font-weight="bold">LOF Series</text>
  <text x="100" y="140" font-family="Arial, sans-serif" font-size="10" fill="#666" text-anchor="middle">Open Frame Power</text>
</svg>