<svg width="200" height="150" viewBox="0 0 200 150" xmlns="http://www.w3.org/2000/svg">
  <rect width="200" height="150" fill="#f4f4f4"/>
  
  <!-- DC/DC converter module -->
  <rect x="40" y="50" width="120" height="50" fill="#00AEEF" rx="3"/>
  <rect x="45" y="55" width="110" height="40" fill="#0033A0" rx="2"/>
  
  <!-- Pins -->
  <rect x="35" y="70" width="8" height="2" fill="silver"/>
  <rect x="35" y="75" width="8" height="2" fill="silver"/>
  <rect x="35" y="80" width="8" height="2" fill="silver"/>
  
  <rect x="157" y="70" width="8" height="2" fill="silver"/>
  <rect x="157" y="75" width="8" height="2" fill="silver"/>
  <rect x="157" y="80" width="8" height="2" fill="silver"/>
  
  <!-- Components on PCB -->
  <rect x="55" y="65" width="15" height="10" fill="#FFC72C"/>
  <rect x="75" y="65" width="8" height="10" fill="#333"/>
  <rect x="90" y="65" width="15" height="10" fill="#FFC72C"/>
  <circle cx="125" cy="70" r="8" fill="#333"/>
  <rect x="140" y="65" width="10" height="10" fill="#666"/>
  
  <!-- Label -->
  <text x="100" y="125" font-family="Arial, sans-serif" font-size="14" fill="#0033A0" text-anchor="middle" font-weight="bold">URB Series</text>
  <text x="100" y="140" font-family="Arial, sans-serif" font-size="10" fill="#666" text-anchor="middle">DC/DC Converter</text>
</svg>