<svg xmlns="http://www.w3.org/2000/svg" viewBox="0 0 400 240" fill="none">
  <defs>
    <linearGradient id="bg" x1="0%" y1="0%" x2="100%" y2="100%">
      <stop offset="0%" style="stop-color:#f8f8ff;stop-opacity:1" />
      <stop offset="100%" style="stop-color:#e8f0ff;stop-opacity:1" />
    </linearGradient>
    <linearGradient id="moduleGradient" x1="0%" y1="0%" x2="0%" y2="100%">
      <stop offset="0%" style="stop-color:#0033A0;stop-opacity:1" />
      <stop offset="100%" style="stop-color:#00AEEF;stop-opacity:1" />
    </linearGradient>
  </defs>
  
  <rect width="400" height="240" fill="url(#bg)"/>
  
  <!-- DC/DC Power Module -->
  <g transform="translate(120,70)">
    <!-- Main module body -->
    <rect x="0" y="0" width="80" height="60" fill="url(#moduleGradient)" rx="4"/>
    <!-- Top label -->
    <rect x="8" y="6" width="64" height="12" fill="#ffffff" rx="2"/>
    <text x="40" y="14" text-anchor="middle" font-size="8" font-weight="bold" fill="#0033A0">MORNSUN URB</text>
    
    <!-- Pins/Terminals -->
    <g fill="#FFC72C">
      <!-- Input pins -->
      <rect x="-2" y="20" width="4" height="3"/>
      <rect x="-2" y="26" width="4" height="3"/>
      <rect x="-2" y="32" width="4" height="3"/>
      <rect x="-2" y="38" width="4" height="3"/>
      <!-- Output pins -->
      <rect x="78" y="20" width="4" height="3"/>
      <rect x="78" y="26" width="4" height="3"/>
      <rect x="78" y="32" width="4" height="3"/>
      <rect x="78" y="38" width="4" height="3"/>
    </g>
    
    <!-- Internal components -->
    <rect x="10" y="22" width="15" height="10" fill="#333" rx="1"/>
    <rect x="28" y="22" width="8" height="10" fill="#666" rx="1"/>
    <rect x="40" y="22" width="12" height="10" fill="#333" rx="1"/>
    <rect x="55" y="22" width="12" height="10" fill="#666" rx="1"/>
    
    <!-- Transformer -->
    <circle cx="25" cy="40" r="6" fill="#FFC72C" stroke="#0033A0" stroke-width="1"/>
    <text x="25" y="42" text-anchor="middle" font-size="5" fill="#0033A0">T</text>
    
    <!-- Capacitors -->
    <rect x="45" y="36" width="3" height="8" fill="#666"/>
    <rect x="50" y="36" width="3" height="8" fill="#666"/>
    <rect x="55" y="36" width="3" height="8" fill="#666"/>
    
    <!-- Status indicator -->
    <circle cx="65" cy="12" r="2" fill="#00ff00"/>
  </g>
  
  <!-- Input DC -->
  <g transform="translate(30,105)">
    <rect x="0" y="-6" width="30" height="3" fill="#0066cc"/>
    <rect x="0" y="3" width="30" height="3" fill="#0066cc"/>
    <text x="15" y="15" text-anchor="middle" font-size="11" fill="#0066cc">DC Input</text>
    <text x="15" y="28" text-anchor="middle" font-size="9" fill="#666">9-36VDC</text>
  </g>
  
  <!-- Output DC -->
  <g transform="translate(330,105)">
    <rect x="0" y="-6" width="30" height="3" fill="#00aa00"/>
    <rect x="0" y="3" width="30" height="3" fill="#00aa00"/>
    <text x="15" y="15" text-anchor="middle" font-size="11" fill="#00aa00">DC Output</text>
    <text x="15" y="28" text-anchor="middle" font-size="9" fill="#666">3.3V/5V/12V</text>
  </g>
  
  <!-- Isolation barrier -->
  <g transform="translate(180,80)">
    <rect x="0" y="0" width="3" height="40" fill="#FFC72C"/>
    <rect x="5" y="0" width="3" height="40" fill="#FFC72C"/>
    <text x="4" y="50" text-anchor="middle" font-size="8" fill="#FFC72C">ISOLATION</text>
  </g>
  
  <!-- Connection arrows -->
  <path d="M65 115 L120 115" stroke="#333" stroke-width="2" marker-end="url(#arrowhead)"/>
  <path d="M200 115 L325 115" stroke="#333" stroke-width="2" marker-end="url(#arrowhead)"/>
  
  <defs>
    <marker id="arrowhead" markerWidth="10" markerHeight="7" refX="10" refY="3.5" orient="auto">
      <polygon points="0 0, 10 3.5, 0 7" fill="#333"/>
    </marker>
  </defs>
  
  <!-- Efficiency indicator -->
  <g transform="translate(170,40)">
    <text x="30" y="0" text-anchor="middle" font-size="12" font-weight="bold" fill="#0033A0">92% Efficiency</text>
    <path d="M0 10 Q15 5 30 10 Q45 15 60 10" stroke="#00AEEF" stroke-width="2" fill="none"/>
  </g>
  
  <!-- Title -->
  <text x="200" y="190" text-anchor="middle" font-size="16" font-weight="bold" fill="#0033A0">URB Series DC/DC Converters</text>
  <text x="200" y="210" text-anchor="middle" font-size="12" fill="#666">High efficiency isolated DC/DC modules</text>
</svg>