<svg width="300" height="200" viewBox="0 0 300 200" xmlns="http://www.w3.org/2000/svg">
  <rect width="300" height="200" fill="#f4f4f4"/>
  <rect x="0" y="0" width="300" height="40" fill="#FFC72C"/>
  <text x="150" y="25" font-family="Arial, sans-serif" font-size="16" fill="#0033A0" text-anchor="middle">Industry Trends 2025</text>
  
  <!-- Chart representation -->
  <rect x="50" y="60" width="200" height="120" fill="white"/>
  <polyline points="60,160 80,140 100,120 120,100 140,90 160,80 180,70 200,65 220,60 240,58" 
            stroke="#00AEEF" stroke-width="3" fill="none"/>
  
  <!-- Bars -->
  <rect x="60" y="150" width="15" height="20" fill="#0033A0"/>
  <rect x="90" y="130" width="15" height="40" fill="#0033A0"/>
  <rect x="120" y="110" width="15" height="60" fill="#0033A0"/>
  <rect x="150" y="80" width="15" height="90" fill="#0033A0"/>
  <rect x="180" y="70" width="15" height="100" fill="#0033A0"/>
  <rect x="210" y="60" width="15" height="110" fill="#0033A0"/>
  
  <text x="150" y="190" font-family="Arial, sans-serif" font-size="10" fill="#666" text-anchor="middle">Power Market Growth</text>
</svg>